<svg width="246.628" height="246.628" xml:space="preserve" xmlns="http://www.w3.org/2000/svg"><path style="fill:#323232;fill-opacity:1" d="M96.492 79.309h67.5v67.5h-67.5z" transform="rotate(45 86.417 123.799) scale(.8612)"/><path style="fill:#a4fbff;fill-opacity:1" d="M96.492 79.309h67.5v67.5h-67.5z" transform="rotate(45 185.653 82.694) scale(.8612)"/><path style="fill:#d892d7;fill-opacity:1" d="M96.492 79.309h67.5v67.5h-67.5z" transform="rotate(45 115.483 53.629) scale(.8612)"/><path style="fill:#4fb7ed;fill-opacity:1" d="M96.492 79.309h67.5v67.5h-67.5z" transform="rotate(45 156.588 152.864) scale(.8612)"/><path style="fill:#e6bed1;fill-opacity:1" d="M96.492 79.309h67.5v67.5h-67.5z" transform="rotate(45 45.312 24.563) scale(.8612)"/><path style="fill:#ccfa9c;fill-opacity:1" d="M96.492 79.309h67.5v67.5h-67.5z" transform="rotate(45 127.522 223.034) scale(.8612)"/><path style="fill:#caa68b;fill-opacity:1" d="M96.492 79.309h67.5v67.5h-67.5z" transform="rotate(45 16.247 94.734) scale(.8612)"/><path style="fill:#bab5b5;fill-opacity:1" d="M96.492 79.309h67.5v67.5h-67.5z" transform="rotate(45 57.352 193.97) scale(.8612)"/><path style="fill:#ffd485;fill-opacity:1" d="M96.492 79.309h67.5v67.5h-67.5z" transform="rotate(45 -12.818 164.904) scale(.8612)"/></svg>